
<svg width="131" height="118" xmlns="http://www.w3.org/2000/svg">
 <defs data-uid="o-fe2a2c595eed48a9900e9560a281e9d1" transform="matrix(1.028992484444195, 0, 0, 1.028992484444195, 21.546987366687695, -7.4220773488862335)">
  <linearGradient data-uid="o-dc25970ce75a4259829ff7c8c5a1985f" gradientUnits="objectBoundingBox" id="o-6cd54e8502b240c7bc55520842e19a0d" y2="17.89%" x2="88.26%" y1="82.11%" x1="11.74%">
   <stop data-uid="o-ec208b69631646d488749f6247d2dcf2" stop-opacity="0" stop-color="rgb(79, 255, 235)" offset="0%"/>
   <stop data-uid="o-673e048ef1314545bfe82c6fddba8f15" stop-opacity="0.62" stop-color="rgb(79, 255, 235)" offset="100%"/>
  </linearGradient>
  <linearGradient data-uid="o-3fda4d1bcce348cd9e776daf2c11c984" gradientUnits="objectBoundingBox" id="o-86870e19c0574a6cb6f74df0f34d114e" y2="17.89%" x2="88.26%" y1="82.11%" x1="11.74%">
   <stop data-uid="o-19e36c8d6a884d7cbb64b0b95d8fdea1" stop-opacity="0" stop-color="rgb(100, 144, 250)" offset="0%"/>
   <stop data-uid="o-89a4e614338f4212b0d85d9dcfb0bb87" stop-color="rgb(100, 144, 250)" offset="100%"/>
  </linearGradient>
  <linearGradient data-uid="o-0e3fe1c0813546d8b0bc82a9a56b693b" gradientUnits="objectBoundingBox" id="o-e0e10ad818a744f3b3d650d1881d5363" y2="17.89%" x2="88.26%" y1="82.11%" x1="11.74%">
   <stop data-uid="o-57f1a2f446c84875944fbc72fb05f1ad" stop-color="rgb(100, 144, 250)" offset="0%"/>
   <stop data-uid="o-49773516420f4e0fa1ec3182e0a72389" stop-opacity="0" stop-color="rgb(100, 144, 250)" offset="100%"/>
  </linearGradient>
  <linearGradient data-uid="o-a08be708a7744befaf18800b0d8a8e03" gradientUnits="objectBoundingBox" id="o-5ebab469b482438e9e0715b1dcf8cb7c" y2="11.74%" x2="17.89%" y1="88.26%" x1="82.11%">
   <stop data-uid="o-d5f9a3dc845944789b861c41bd1747e8" stop-opacity="0" stop-color="rgb(100, 144, 250)" offset="0%"/>
   <stop data-uid="o-985ef07a48b64a4f89c916a572ad059f" stop-color="rgb(100, 144, 250)" offset="100%"/>
  </linearGradient>
  <linearGradient data-uid="o-6bbb885102c447e18270dcfb54a59a3b" gradientUnits="objectBoundingBox" id="o-5e9b5f997cda4853bb7890feb788082a" y2="11.74%" x2="17.89%" y1="88.26%" x1="82.11%">
   <stop data-uid="o-1fdf17a881154f2e823798fcd67e94b7" stop-color="rgb(100, 144, 250)" offset="0%"/>
   <stop data-uid="o-3183732dd4dc48768df3f96a11eebb53" stop-opacity="0" stop-color="rgb(100, 144, 250)" offset="100%"/>
  </linearGradient>
 </defs>
 <g>
  <title>Layer 1</title>
  <g stroke="null" id="svg_1" data-uid="o-dc44165d32bc45b4b1a3e4dd018d2649" transform="matrix(1.1367 0 0 1.06001 -109.845 24.291)">
   <g stroke="null" id="svg_2" data-uid="o-7b5462f2d4874cd29817fb11774a5008" fill="#1b60ca" transform="matrix(0.797324 0 0 0.797324 -23.7455 98.3503)">
    <path stroke="null" id="svg_3" data-uid="o-d60f90e2952a43c5bd22c7fd01da4634" fill="#1b60ca" d="m216.08597,-101.82983l0,0l48.60017,-0.50753c1.01506,-0.30189 1.8026,-1.11131 2.07386,-2.13512c0.27564,-1.02381 0,-2.11762 -0.72629,-2.88766l-27.73465,-27.73465c-4.5415,-3.93334 -10.9206,-4.9659 -16.47278,-2.66452c-5.55218,2.30138 -9.32364,7.54729 -9.74366,13.54574l-0.22314,18.1485c0.28002,2.2095 2.02136,3.95522 4.22648,4.23523z"/>
    <path stroke="null" id="svg_4" data-uid="o-0c5cf508ab9a4afabf1ae81b5e50aa0a" fill="#1b60ca" d="m178.42827,-61.52949c-0.27564,1.02818 0,2.12199 0.73067,2.89203l27.73903,27.73465c4.5415,3.93772 10.9206,4.97027 16.47278,2.66452c5.55218,-2.30575 9.32801,-7.55167 9.74804,-13.54574l0.21876,-18.1485c-0.28002,-2.21387 -2.02574,-3.95084 -4.23523,-4.23523l-48.5958,0.50315c-1.01943,0.30189 -1.80697,1.11131 -2.07824,2.13512z"/>
    <path stroke="null" id="svg_5" data-uid="o-6bb86a0a1979450d96de06fb21e35228" fill="#1b60ca" d="m244.07438,-38.83949c1.02381,0.27564 2.11762,0 2.88766,-0.72629l27.73465,-27.73465c3.93334,-4.5415 4.9659,-10.9206 2.66452,-16.47278s-7.54729,-9.32364 -13.54574,-9.74366l-18.1485,-0.22314c-2.21387,0.28439 -3.95522,2.02574 -4.23523,4.22648l0.50753,48.60017c0.30189,1.01506 1.11131,1.8026 2.13512,2.07386z"/>
    <path stroke="null" id="svg_6" data-uid="o-18801651e01346918fd8da8eb00c4aba" fill="#1b60ca" d="m201.1314,-127.17122c-1.02818,-0.27564 -2.12199,0 -2.89203,0.73067l-27.73465,27.73465c-3.93772,4.5415 -4.97027,10.9206 -2.66452,16.47278c2.30575,5.55218 7.55167,9.32801 13.54574,9.74804l18.1485,0.22314c2.2095,-0.28002 3.95084,-2.02136 4.23523,-4.23523l-0.50315,-48.5958c-0.30189,-1.01943 -1.11131,-1.80697 -2.13512,-2.07824z"/>
   </g>
   <g stroke="null" id="svg_7" data-uid="o-f576bc6303204c4780b9f69561b32dc1" fill="url(#o-6cd54e8502b240c7bc55520842e19a0d)" transform="matrix(0.797324 0 0 0.797324 -23.7455 98.3503)">
    <path stroke="null" id="svg_8" data-uid="o-99ad80b0ab8343b08c29bb9c7dfdb5d6" fill="url(#o-5e9b5f997cda4853bb7890feb788082a)" clip-rule="evenodd" fill-rule="evenodd" d="m266.76876,-104.63873c0.06563,-0.23626 0.09626,-0.4769 0.10501,-0.71316c-0.02188,-0.73942 -0.31064,-1.45258 -0.8313,-2.00386l-27.73465,-27.73465c-4.54587,-3.93772 -10.92498,-4.9659 -16.47278,-2.66452c-5.5303,2.297 -9.29739,7.51229 -9.73929,13.48449c0.06563,-0.03063 0.13126,-0.05688 0.20126,-0.0875c5.55218,-2.30138 11.93128,-1.26882 16.47278,2.66452l19.36919,19.36919l16.56029,-0.17063c1.01068,-0.31064 1.79385,-1.12006 2.06949,-2.14387z" class="st0"/>
    <path stroke="null" id="svg_9" data-uid="o-ac7ffdb999304adca930a4feecf2afff" fill="url(#o-5ebab469b482438e9e0715b1dcf8cb7c)" clip-rule="evenodd" fill-rule="evenodd" d="m178.39327,-60.08128c0.00438,0.00875 0.00438,0.02188 0.00875,0.03063c0.00438,0.02188 0.00875,0.03938 0.01313,0.06125c0.00438,0.02625 0.01313,0.04813 0.02188,0.07438c0,0.00438 0.00438,0.01313 0.00438,0.0175c0.09626,0.33689 0.24939,0.65629 0.4594,0.94505l0.00438,0.00438c0.01313,0.0175 0.02625,0.035 0.03938,0.0525c0.00875,0.00875 0.01313,0.0175 0.02188,0.02625c0.00875,0.00875 0.0175,0.02188 0.02625,0.03063c0.01313,0.0175 0.02625,0.03063 0.03938,0.04813c0.00438,0.00438 0.00438,0.00438 0.00875,0.00875c0.03938,0.04813 0.08313,0.09626 0.12688,0.14001l21.01428,21.01428l6.72037,6.72037c4.54587,3.93772 10.92498,4.9659 16.47278,2.66452c0.25814,-0.10938 0.51628,-0.22314 0.77004,-0.34127c0.0175,-0.00875 0.035,-0.0175 0.0525,-0.02625c0.06563,-0.03063 0.13126,-0.06125 0.19689,-0.09626c0.035,-0.0175 0.07,-0.035 0.10501,-0.0525c0.04813,-0.02625 0.09626,-0.04813 0.14438,-0.07438c0.0525,-0.02625 0.10501,-0.05688 0.15751,-0.08313c0.03063,-0.0175 0.05688,-0.03063 0.0875,-0.04813c0.07,-0.03938 0.14001,-0.07875 0.21001,-0.11813c0.00875,-0.00438 0.0175,-0.00875 0.03063,-0.0175c4.56775,-2.59014 7.59542,-7.31103 7.98919,-12.62694c-0.06563,0.03063 -0.13126,0.05688 -0.20126,0.0875c-5.55218,2.30138 -11.93128,1.26882 -16.47278,-2.66452l-19.5442,-19.53107l-16.39403,0.17063c-1.01943,0.30189 -1.8026,1.11569 -2.07824,2.13512c-0.13126,0.48128 -0.13563,0.97568 -0.035,1.4482z" class="st0"/>
    <path stroke="null" id="svg_10" data-uid="o-2206a1d625e0447fab03f7d63155bfda" fill="url(#o-e0e10ad818a744f3b3d650d1881d5363)" clip-rule="evenodd" fill-rule="evenodd" d="m277.01994,-84.65264c-0.00438,-0.00875 -0.00875,-0.01313 -0.00875,-0.02188c-0.035,-0.07438 -0.07438,-0.15313 -0.11376,-0.22751c-0.00875,-0.0175 -0.0175,-0.03063 -0.02188,-0.04813c-0.035,-0.06563 -0.07,-0.13563 -0.10501,-0.20126c-0.01313,-0.02625 -0.02625,-0.0525 -0.04375,-0.07875c-0.03063,-0.05688 -0.05688,-0.10938 -0.0875,-0.16626c-0.02188,-0.035 -0.03938,-0.07438 -0.06125,-0.10938c-0.02625,-0.04375 -0.04813,-0.0875 -0.07438,-0.13126c-0.02625,-0.04813 -0.0525,-0.09188 -0.07875,-0.14001c-0.0175,-0.035 -0.03938,-0.06563 -0.05688,-0.10063c-0.03063,-0.05688 -0.06563,-0.10938 -0.10063,-0.16626c-0.01313,-0.02188 -0.03063,-0.04813 -0.04375,-0.07c-0.03938,-0.06563 -0.07875,-0.12688 -0.11813,-0.19251c-0.00875,-0.01313 -0.0175,-0.02625 -0.02625,-0.03938c-0.04813,-0.07438 -0.09188,-0.14438 -0.14001,-0.21439c-0.00438,-0.00438 -0.00438,-0.00875 -0.00875,-0.01313c-2.67765,-4.03835 -7.10539,-6.68537 -12.04941,-7.05289c0.03063,0.06563 0.05688,0.13126 0.0875,0.20126c2.30138,5.55218 1.26882,11.93128 -2.66452,16.47278l-19.53107,19.53107l0.17063,16.39403c0.30189,1.01506 1.11131,1.8026 2.13512,2.07386c1.02381,0.27564 2.11762,0 2.88766,-0.72629l27.73465,-27.73465c3.93772,-4.54587 4.9659,-10.92498 2.66452,-16.47278c-0.11376,-0.25376 -0.22751,-0.5119 -0.34564,-0.76567z" class="st0"/>
    <path stroke="null" id="svg_11" data-uid="o-8af31279df1743448251caddd34d0e0e" fill="url(#o-86870e19c0574a6cb6f74df0f34d114e)" clip-rule="evenodd" fill-rule="evenodd" d="m167.84019,-82.23313c0.035,0.0875 0.07438,0.17501 0.10938,0.25814c0.00438,0.00438 0.00438,0.01313 0.00875,0.0175c0.035,0.07875 0.07,0.15751 0.10501,0.24064c0.00875,0.0175 0.0175,0.03938 0.02625,0.05688c0.03063,0.06563 0.06125,0.13126 0.09188,0.19689c0.02188,0.04375 0.03938,0.08313 0.06125,0.12688c0.02188,0.03938 0.03938,0.08313 0.06125,0.12251c0.03063,0.05688 0.06125,0.11813 0.09188,0.17501c0.01313,0.02188 0.02625,0.04813 0.035,0.07c0.03938,0.07875 0.08313,0.15751 0.12251,0.23189c0,0.00438 0.00438,0.00875 0.00438,0.00875c2.55952,4.69901 7.3504,7.83168 12.76258,8.22983c-0.03063,-0.06563 -0.05688,-0.13126 -0.0875,-0.20126c-2.30138,-5.55218 -1.26882,-11.93128 2.66452,-16.47278l19.53107,-19.53107l-0.17063,-16.39403c-0.30189,-1.01943 -1.11569,-1.8026 -2.13512,-2.07824c-0.44627,-0.12251 -0.91005,-0.13563 -1.35195,-0.0525c0,0 0,0 -0.00438,0c-0.03063,0.00438 -0.06125,0.01313 -0.09188,0.0175c-0.0175,0.00438 -0.035,0.00875 -0.0525,0.01313c-0.01313,0.00438 -0.02625,0.00438 -0.03938,0.00875c-0.40252,0.10063 -0.78317,0.28439 -1.12006,0.54691c0,0 0,0 -0.00438,0.00438c-0.0175,0.01313 -0.035,0.02625 -0.0525,0.04375c-0.00875,0.00875 -0.0175,0.01313 -0.02625,0.02188s-0.02188,0.0175 -0.03063,0.02625c-0.0175,0.01313 -0.03063,0.02625 -0.04375,0.03938c-0.00438,0.00438 -0.00438,0.00438 -0.00875,0.00875c-0.02188,0.02188 -0.04375,0.03938 -0.06563,0.06125l-8.15545,8.15545l-19.57045,19.57483c-3.93772,4.54587 -4.9659,10.92498 -2.66452,16.47278z" class="st0"/>
   </g>
  </g>
 </g>
</svg>